<mxfile host="Electron" modified="2024-02-04T05:02:03.954Z" agent="Mozilla/5.0 (Windows NT 10.0; Win64; x64) AppleWebKit/537.36 (KHTML, like Gecko) draw.io/23.0.2 Chrome/120.0.6099.109 Electron/28.1.0 Safari/537.36" etag="YC5CCBZsOLSbe79S3cvq" version="23.0.2" type="device">
  <diagram name="Page-1" id="UMM78bcty8Yh2Ipk4xUr">
    <mxGraphModel dx="2330" dy="866" grid="1" gridSize="11" guides="1" tooltips="1" connect="1" arrows="1" fold="1" page="1" pageScale="1" pageWidth="850" pageHeight="1100" math="0" shadow="0">
      <root>
        <mxCell id="0" />
        <mxCell id="1" parent="0" />
        <mxCell id="FPNfaOGOEIjZuPGmD0JC-3" value="&lt;font style=&quot;font-size: 16px;&quot;&gt;Database&lt;/font&gt;" style="shape=cylinder3;whiteSpace=wrap;html=1;boundedLbl=1;backgroundOutline=1;size=15;fontSize=16;points=[[0,0,0,0,15],[0,0,0,0,30],[0,0,0,0,60],[0,0.5,0,0,0],[0,1,0,0,-15],[0.145,0,0,0,4.35],[0.145,1,0,0,-4.35],[0.5,0,0,0,0],[0.5,1,0,0,0],[0.855,0,0,0,4.35],[0.855,1,0,0,-4.35],[1,0,0,0,15],[1,0,0,0,30],[1,0,0,0,60],[1,0.5,0,0,0],[1,1,0,0,-15]];" parent="1" vertex="1">
          <mxGeometry x="220" y="385" width="209" height="99" as="geometry" />
        </mxCell>
        <mxCell id="FPNfaOGOEIjZuPGmD0JC-20" value="&lt;font style=&quot;font-size: 16px;&quot;&gt;View Main &lt;br&gt;Menu&lt;/font&gt;" style="ellipse;whiteSpace=wrap;html=1;" parent="1" vertex="1">
          <mxGeometry x="-11" y="291.65" width="132" height="69" as="geometry" />
        </mxCell>
        <mxCell id="FPNfaOGOEIjZuPGmD0JC-21" value="" style="endArrow=classic;html=1;rounded=0;entryX=0.5;entryY=1;entryDx=0;entryDy=0;exitX=0;exitY=0;exitDx=0;exitDy=15;exitPerimeter=0;" parent="1" source="FPNfaOGOEIjZuPGmD0JC-3" target="FPNfaOGOEIjZuPGmD0JC-20" edge="1">
          <mxGeometry width="50" height="50" relative="1" as="geometry">
            <mxPoint x="97.30499999999984" y="428.9999999999999" as="sourcePoint" />
            <mxPoint x="187.9960000000001" y="325.6460000000001" as="targetPoint" />
            <Array as="points" />
          </mxGeometry>
        </mxCell>
        <mxCell id="FPNfaOGOEIjZuPGmD0JC-23" value="Main Menu" style="rounded=0;whiteSpace=wrap;html=1;fontSize=16;" parent="1" vertex="1">
          <mxGeometry x="-131" y="116.65" width="120" height="60" as="geometry" />
        </mxCell>
        <mxCell id="FPNfaOGOEIjZuPGmD0JC-24" value="" style="endArrow=classic;html=1;rounded=0;entryX=0.677;entryY=1.012;entryDx=0;entryDy=0;entryPerimeter=0;exitX=0.303;exitY=0.029;exitDx=0;exitDy=0;exitPerimeter=0;labelBackgroundColor=#fa8a3e;labelBorderColor=#fa8a3e;" parent="1" source="FPNfaOGOEIjZuPGmD0JC-20" target="FPNfaOGOEIjZuPGmD0JC-23" edge="1">
          <mxGeometry width="50" height="50" relative="1" as="geometry">
            <mxPoint x="89" y="287.65" as="sourcePoint" />
            <mxPoint x="-10" y="182.65" as="targetPoint" />
          </mxGeometry>
        </mxCell>
        <mxCell id="mcMoHzOgPTdc0PGV9m2C-2" style="edgeStyle=orthogonalEdgeStyle;rounded=0;orthogonalLoop=1;jettySize=auto;html=1;" edge="1" parent="1">
          <mxGeometry relative="1" as="geometry">
            <mxPoint x="324" y="110" as="targetPoint" />
            <mxPoint x="324.0000000000002" y="174" as="sourcePoint" />
          </mxGeometry>
        </mxCell>
        <mxCell id="FPNfaOGOEIjZuPGmD0JC-30" value="&lt;font style=&quot;font-size: 16px;&quot;&gt;Register&lt;/font&gt;" style="ellipse;whiteSpace=wrap;html=1;" parent="1" vertex="1">
          <mxGeometry x="274" y="192" width="132" height="69" as="geometry" />
        </mxCell>
        <mxCell id="FPNfaOGOEIjZuPGmD0JC-32" value="" style="endArrow=classic;html=1;rounded=0;entryX=0.381;entryY=0.029;entryDx=0;entryDy=0;entryPerimeter=0;" parent="1" edge="1">
          <mxGeometry width="50" height="50" relative="1" as="geometry">
            <mxPoint x="324" y="143" as="sourcePoint" />
            <mxPoint x="324.1920000000001" y="192.00099999999998" as="targetPoint" />
            <Array as="points" />
          </mxGeometry>
        </mxCell>
        <mxCell id="FPNfaOGOEIjZuPGmD0JC-33" value="New User Registration&lt;br&gt;From" style="rounded=0;whiteSpace=wrap;html=1;fontSize=16;" parent="1" vertex="1">
          <mxGeometry x="264" y="44" width="120" height="60" as="geometry" />
        </mxCell>
        <mxCell id="FPNfaOGOEIjZuPGmD0JC-34" value="" style="endArrow=classic;html=1;rounded=0;exitX=0.4;exitY=1.018;exitDx=0;exitDy=0;entryX=0.5;entryY=0;entryDx=0;entryDy=0;entryPerimeter=0;exitPerimeter=0;" parent="1" source="FPNfaOGOEIjZuPGmD0JC-30" target="FPNfaOGOEIjZuPGmD0JC-3" edge="1">
          <mxGeometry width="50" height="50" relative="1" as="geometry">
            <mxPoint x="374" y="297" as="sourcePoint" />
            <mxPoint x="476" y="412" as="targetPoint" />
            <Array as="points" />
          </mxGeometry>
        </mxCell>
        <mxCell id="FPNfaOGOEIjZuPGmD0JC-40" value="&lt;font style=&quot;font-size: 16px;&quot;&gt;List Item&lt;/font&gt;" style="ellipse;whiteSpace=wrap;html=1;" parent="1" vertex="1">
          <mxGeometry x="396" y="261" width="132" height="69" as="geometry" />
        </mxCell>
        <mxCell id="FPNfaOGOEIjZuPGmD0JC-41" value="" style="endArrow=classic;html=1;rounded=0;exitX=0.5;exitY=1;exitDx=0;exitDy=0;entryX=0.706;entryY=0.007;entryDx=0;entryDy=0;entryPerimeter=0;" parent="1" source="FPNfaOGOEIjZuPGmD0JC-42" target="FPNfaOGOEIjZuPGmD0JC-40" edge="1">
          <mxGeometry width="50" height="50" relative="1" as="geometry">
            <mxPoint x="514.05" y="76.47" as="sourcePoint" />
            <mxPoint x="517" y="275" as="targetPoint" />
            <Array as="points" />
          </mxGeometry>
        </mxCell>
        <mxCell id="FPNfaOGOEIjZuPGmD0JC-42" value="New Item Form" style="rounded=0;whiteSpace=wrap;html=1;fontSize=16;" parent="1" vertex="1">
          <mxGeometry x="495" y="77" width="120" height="60" as="geometry" />
        </mxCell>
        <mxCell id="FPNfaOGOEIjZuPGmD0JC-43" value="" style="endArrow=classic;html=1;rounded=0;exitX=0.4;exitY=1.018;exitDx=0;exitDy=0;entryX=0.789;entryY=0;entryDx=0;entryDy=0;entryPerimeter=0;exitPerimeter=0;" parent="1" source="FPNfaOGOEIjZuPGmD0JC-40" target="FPNfaOGOEIjZuPGmD0JC-3" edge="1">
          <mxGeometry width="50" height="50" relative="1" as="geometry">
            <mxPoint x="525.05" y="307.47" as="sourcePoint" />
            <mxPoint x="362.99999999999983" y="384.9999999999998" as="targetPoint" />
            <Array as="points" />
          </mxGeometry>
        </mxCell>
        <mxCell id="FPNfaOGOEIjZuPGmD0JC-45" value="&lt;font style=&quot;font-size: 16px;&quot;&gt;Search for Item&lt;/font&gt;" style="ellipse;whiteSpace=wrap;html=1;" parent="1" vertex="1">
          <mxGeometry x="495" y="341" width="132" height="69" as="geometry" />
        </mxCell>
        <mxCell id="FPNfaOGOEIjZuPGmD0JC-46" value="" style="endArrow=classic;html=1;rounded=0;exitX=1;exitY=0;exitDx=0;exitDy=30;exitPerimeter=0;" parent="1" source="FPNfaOGOEIjZuPGmD0JC-3" target="FPNfaOGOEIjZuPGmD0JC-45" edge="1">
          <mxGeometry width="50" height="50" relative="1" as="geometry">
            <mxPoint x="440" y="434" as="sourcePoint" />
            <mxPoint x="879.9960000000001" y="395.9960000000001" as="targetPoint" />
            <Array as="points" />
          </mxGeometry>
        </mxCell>
        <mxCell id="FPNfaOGOEIjZuPGmD0JC-48" value="Item Search and&amp;nbsp;&lt;br&gt;Results" style="rounded=0;whiteSpace=wrap;html=1;fontSize=16;labelBackgroundColor=none;" parent="1" vertex="1">
          <mxGeometry x="649" y="176" width="165" height="60" as="geometry" />
        </mxCell>
        <mxCell id="FPNfaOGOEIjZuPGmD0JC-50" value="&lt;span style=&quot;font-size: 16px;&quot;&gt;View/ Edit/ &lt;br&gt;Purchase/&amp;nbsp;Bid&lt;br&gt;&lt;/span&gt;" style="ellipse;whiteSpace=wrap;html=1;" parent="1" vertex="1">
          <mxGeometry x="462" y="506" width="165" height="88" as="geometry" />
        </mxCell>
        <mxCell id="FPNfaOGOEIjZuPGmD0JC-53" value="Item for Sale" style="rounded=0;whiteSpace=wrap;html=1;fontSize=16;labelBackgroundColor=none;" parent="1" vertex="1">
          <mxGeometry x="715" y="693" width="121" height="55" as="geometry" />
        </mxCell>
        <mxCell id="FPNfaOGOEIjZuPGmD0JC-55" value="" style="endArrow=classic;startArrow=classic;html=1;rounded=0;exitX=0.4;exitY=0;exitDx=0;exitDy=0;exitPerimeter=0;entryX=1;entryY=0.667;entryDx=0;entryDy=0;entryPerimeter=0;" parent="1" source="FPNfaOGOEIjZuPGmD0JC-50" target="FPNfaOGOEIjZuPGmD0JC-3" edge="1">
          <mxGeometry width="50" height="50" relative="1" as="geometry">
            <mxPoint x="495" y="462" as="sourcePoint" />
            <mxPoint x="440" y="451" as="targetPoint" />
          </mxGeometry>
        </mxCell>
        <mxCell id="FPNfaOGOEIjZuPGmD0JC-56" value="" style="endArrow=classic;startArrow=classic;html=1;rounded=0;entryX=0.766;entryY=0.949;entryDx=0;entryDy=0;entryPerimeter=0;exitX=0.395;exitY=-0.067;exitDx=0;exitDy=0;exitPerimeter=0;" parent="1" source="FPNfaOGOEIjZuPGmD0JC-53" target="FPNfaOGOEIjZuPGmD0JC-50" edge="1">
          <mxGeometry width="50" height="50" relative="1" as="geometry">
            <mxPoint x="671" y="715" as="sourcePoint" />
            <mxPoint x="411" y="491" as="targetPoint" />
          </mxGeometry>
        </mxCell>
        <mxCell id="FPNfaOGOEIjZuPGmD0JC-60" value="&lt;span style=&quot;font-size: 16px;&quot;&gt;View/ Delete&lt;br&gt;Rating&lt;br&gt;&lt;/span&gt;" style="ellipse;whiteSpace=wrap;html=1;" parent="1" vertex="1">
          <mxGeometry x="281" y="594" width="144.5" height="77" as="geometry" />
        </mxCell>
        <mxCell id="FPNfaOGOEIjZuPGmD0JC-61" value="&amp;nbsp;Item Rating" style="rounded=0;whiteSpace=wrap;html=1;fontSize=16;labelBackgroundColor=none;" parent="1" vertex="1">
          <mxGeometry x="352" y="803" width="121" height="60" as="geometry" />
        </mxCell>
        <mxCell id="FPNfaOGOEIjZuPGmD0JC-62" value="" style="endArrow=classic;startArrow=classic;html=1;rounded=0;exitX=0.5;exitY=0;exitDx=0;exitDy=0;entryX=0.548;entryY=1.038;entryDx=0;entryDy=0;entryPerimeter=0;" parent="1" source="FPNfaOGOEIjZuPGmD0JC-60" target="FPNfaOGOEIjZuPGmD0JC-3" edge="1">
          <mxGeometry width="50" height="50" relative="1" as="geometry">
            <mxPoint x="374" y="496.29" as="sourcePoint" />
            <mxPoint x="320.69399999999996" y="484.00299999999976" as="targetPoint" />
          </mxGeometry>
        </mxCell>
        <mxCell id="FPNfaOGOEIjZuPGmD0JC-63" value="" style="endArrow=classic;startArrow=classic;html=1;rounded=0;exitX=0.395;exitY=-0.067;exitDx=0;exitDy=0;exitPerimeter=0;entryX=0.64;entryY=0.987;entryDx=0;entryDy=0;entryPerimeter=0;" parent="1" source="FPNfaOGOEIjZuPGmD0JC-61" target="FPNfaOGOEIjZuPGmD0JC-60" edge="1">
          <mxGeometry width="50" height="50" relative="1" as="geometry">
            <mxPoint x="550" y="749.29" as="sourcePoint" />
            <mxPoint x="407" y="660" as="targetPoint" />
          </mxGeometry>
        </mxCell>
        <mxCell id="FPNfaOGOEIjZuPGmD0JC-71" value="&lt;span style=&quot;font-size: 16px;&quot;&gt;View Item &lt;br&gt;Results&lt;/span&gt;" style="ellipse;whiteSpace=wrap;html=1;" parent="1" vertex="1">
          <mxGeometry x="-11" y="429" width="132" height="69" as="geometry" />
        </mxCell>
        <mxCell id="FPNfaOGOEIjZuPGmD0JC-72" value="" style="endArrow=classic;html=1;rounded=0;entryX=0.966;entryY=0.373;entryDx=0;entryDy=0;exitX=0;exitY=0;exitDx=0;exitDy=60;exitPerimeter=0;entryPerimeter=0;" parent="1" source="FPNfaOGOEIjZuPGmD0JC-3" target="FPNfaOGOEIjZuPGmD0JC-71" edge="1">
          <mxGeometry width="50" height="50" relative="1" as="geometry">
            <mxPoint x="129" y="722" as="sourcePoint" />
            <mxPoint x="219.9960000000001" y="618.9960000000001" as="targetPoint" />
            <Array as="points" />
          </mxGeometry>
        </mxCell>
        <mxCell id="FPNfaOGOEIjZuPGmD0JC-73" value="Item Results" style="rounded=0;whiteSpace=wrap;html=1;fontSize=16;" parent="1" vertex="1">
          <mxGeometry x="-264" y="341" width="120" height="60" as="geometry" />
        </mxCell>
        <mxCell id="FPNfaOGOEIjZuPGmD0JC-74" value="" style="endArrow=classic;html=1;rounded=0;entryX=1;entryY=0.5;entryDx=0;entryDy=0;exitX=0;exitY=0.5;exitDx=0;exitDy=0;labelBackgroundColor=#fa8a3e;labelBorderColor=#fa8a3e;" parent="1" source="FPNfaOGOEIjZuPGmD0JC-71" target="FPNfaOGOEIjZuPGmD0JC-73" edge="1">
          <mxGeometry width="50" height="50" relative="1" as="geometry">
            <mxPoint x="121" y="581" as="sourcePoint" />
            <mxPoint x="22" y="476" as="targetPoint" />
          </mxGeometry>
        </mxCell>
        <mxCell id="FPNfaOGOEIjZuPGmD0JC-79" value="&lt;span style=&quot;font-size: 16px;&quot;&gt;View Action&lt;br&gt;Results&lt;/span&gt;" style="ellipse;whiteSpace=wrap;html=1;" parent="1" vertex="1">
          <mxGeometry x="88" y="572" width="132" height="69" as="geometry" />
        </mxCell>
        <mxCell id="FPNfaOGOEIjZuPGmD0JC-80" value="" style="endArrow=classic;html=1;rounded=0;entryX=0.778;entryY=-0.007;entryDx=0;entryDy=0;exitX=0.145;exitY=1;exitDx=0;exitDy=-4.35;exitPerimeter=0;entryPerimeter=0;" parent="1" source="FPNfaOGOEIjZuPGmD0JC-3" target="FPNfaOGOEIjZuPGmD0JC-79" edge="1">
          <mxGeometry width="50" height="50" relative="1" as="geometry">
            <mxPoint x="264" y="566" as="sourcePoint" />
            <mxPoint x="263.9960000000001" y="739.9960000000001" as="targetPoint" />
            <Array as="points" />
          </mxGeometry>
        </mxCell>
        <mxCell id="FPNfaOGOEIjZuPGmD0JC-81" value="Auction Results" style="rounded=0;whiteSpace=wrap;html=1;fontSize=16;" parent="1" vertex="1">
          <mxGeometry x="-120" y="715" width="120" height="60" as="geometry" />
        </mxCell>
        <mxCell id="FPNfaOGOEIjZuPGmD0JC-82" value="" style="endArrow=classic;html=1;rounded=0;entryX=1;entryY=0.5;entryDx=0;entryDy=0;exitX=0.277;exitY=1.007;exitDx=0;exitDy=0;exitPerimeter=0;labelBackgroundColor=#fa8a3e;labelBorderColor=#fa8a3e;" parent="1" source="FPNfaOGOEIjZuPGmD0JC-79" target="FPNfaOGOEIjZuPGmD0JC-81" edge="1">
          <mxGeometry width="50" height="50" relative="1" as="geometry">
            <mxPoint x="165" y="702" as="sourcePoint" />
            <mxPoint x="66" y="597" as="targetPoint" />
          </mxGeometry>
        </mxCell>
        <mxCell id="FPNfaOGOEIjZuPGmD0JC-84" value="" style="endArrow=classic;startArrow=classic;html=1;rounded=0;entryX=1;entryY=0;entryDx=0;entryDy=0;exitX=0.5;exitY=1;exitDx=0;exitDy=0;" parent="1" source="FPNfaOGOEIjZuPGmD0JC-48" target="FPNfaOGOEIjZuPGmD0JC-45" edge="1">
          <mxGeometry width="50" height="50" relative="1" as="geometry">
            <mxPoint x="681" y="462" as="sourcePoint" />
            <mxPoint x="615" y="341" as="targetPoint" />
          </mxGeometry>
        </mxCell>
        <mxCell id="mcMoHzOgPTdc0PGV9m2C-3" value="" style="endArrow=classic;startArrow=classic;html=1;rounded=0;exitX=0.5;exitY=0;exitDx=0;exitDy=0;exitPerimeter=0;entryX=1;entryY=0.667;entryDx=0;entryDy=0;entryPerimeter=0;" edge="1" parent="1" source="FPNfaOGOEIjZuPGmD0JC-3">
          <mxGeometry width="50" height="50" relative="1" as="geometry">
            <mxPoint x="425" y="316" as="sourcePoint" />
            <mxPoint x="326" y="261" as="targetPoint" />
          </mxGeometry>
        </mxCell>
        <mxCell id="mcMoHzOgPTdc0PGV9m2C-4" value="" style="endArrow=none;dashed=1;html=1;strokeWidth=2;rounded=0;curved=1;" edge="1" parent="1">
          <mxGeometry width="50" height="50" relative="1" as="geometry">
            <mxPoint x="483" y="154" as="sourcePoint" />
            <mxPoint x="483" y="154" as="targetPoint" />
            <Array as="points">
              <mxPoint x="593" y="220" />
              <mxPoint x="648" y="264" />
              <mxPoint x="681" y="319" />
              <mxPoint x="703" y="385" />
              <mxPoint x="725" y="473" />
              <mxPoint x="692" y="561" />
              <mxPoint x="670" y="605" />
              <mxPoint x="571" y="693" />
              <mxPoint x="450" y="748" />
              <mxPoint x="307" y="759" />
              <mxPoint x="197" y="737" />
              <mxPoint x="98" y="693" />
              <mxPoint x="-12" y="594" />
              <mxPoint x="-45" y="462" />
              <mxPoint x="-23" y="253" />
              <mxPoint x="142" y="176" />
              <mxPoint x="318" y="132" />
            </Array>
          </mxGeometry>
        </mxCell>
        <mxCell id="mcMoHzOgPTdc0PGV9m2C-9" value="&lt;font style=&quot;font-size: 16px;&quot;&gt;Log In&lt;/font&gt;" style="ellipse;whiteSpace=wrap;html=1;" vertex="1" parent="1">
          <mxGeometry x="131" y="197.99999999999997" width="132" height="69" as="geometry" />
        </mxCell>
        <mxCell id="mcMoHzOgPTdc0PGV9m2C-10" value="" style="endArrow=classic;html=1;rounded=0;exitX=0.27;exitY=-0.013;exitDx=0;exitDy=0;exitPerimeter=0;entryX=0.5;entryY=1;entryDx=0;entryDy=0;" edge="1" parent="1" target="mcMoHzOgPTdc0PGV9m2C-9">
          <mxGeometry width="50" height="50" relative="1" as="geometry">
            <mxPoint x="243.42999999999984" y="401.28299999999996" as="sourcePoint" />
            <mxPoint x="308" y="213.71999999999997" as="targetPoint" />
            <Array as="points" />
          </mxGeometry>
        </mxCell>
        <mxCell id="mcMoHzOgPTdc0PGV9m2C-11" value="" style="endArrow=classic;html=1;rounded=0;exitX=0.5;exitY=1;exitDx=0;exitDy=0;entryX=0;entryY=0;entryDx=0;entryDy=0;" edge="1" parent="1" source="mcMoHzOgPTdc0PGV9m2C-12" target="mcMoHzOgPTdc0PGV9m2C-9">
          <mxGeometry width="50" height="50" relative="1" as="geometry">
            <mxPoint x="132" y="-17.280000000000022" as="sourcePoint" />
            <mxPoint x="209" y="147.71999999999997" as="targetPoint" />
            <Array as="points" />
          </mxGeometry>
        </mxCell>
        <mxCell id="mcMoHzOgPTdc0PGV9m2C-12" value="Log In Window" style="rounded=0;whiteSpace=wrap;html=1;fontSize=16;labelBackgroundColor=none;" vertex="1" parent="1">
          <mxGeometry x="11" y="51.71999999999998" width="120" height="60" as="geometry" />
        </mxCell>
        <mxCell id="mcMoHzOgPTdc0PGV9m2C-13" value="&lt;span style=&quot;font-size: 16px;&quot;&gt;Cancel List&lt;br&gt;&lt;/span&gt;" style="ellipse;whiteSpace=wrap;html=1;" vertex="1" parent="1">
          <mxGeometry x="550" y="418" width="165" height="88" as="geometry" />
        </mxCell>
        <mxCell id="mcMoHzOgPTdc0PGV9m2C-14" value="Item for Sale" style="rounded=0;whiteSpace=wrap;html=1;fontSize=16;labelBackgroundColor=none;" vertex="1" parent="1">
          <mxGeometry x="759" y="436" width="121" height="55" as="geometry" />
        </mxCell>
        <mxCell id="mcMoHzOgPTdc0PGV9m2C-15" value="" style="endArrow=classic;startArrow=classic;html=1;rounded=0;entryX=0.766;entryY=0.949;entryDx=0;entryDy=0;entryPerimeter=0;exitX=0;exitY=0.5;exitDx=0;exitDy=0;" edge="1" parent="1" source="mcMoHzOgPTdc0PGV9m2C-13">
          <mxGeometry width="50" height="50" relative="1" as="geometry">
            <mxPoint x="604" y="535" as="sourcePoint" />
            <mxPoint x="429" y="436" as="targetPoint" />
          </mxGeometry>
        </mxCell>
        <mxCell id="mcMoHzOgPTdc0PGV9m2C-16" value="" style="endArrow=classic;startArrow=classic;html=1;rounded=0;entryX=0.766;entryY=0.949;entryDx=0;entryDy=0;entryPerimeter=0;exitX=0;exitY=0.5;exitDx=0;exitDy=0;" edge="1" parent="1" source="mcMoHzOgPTdc0PGV9m2C-14">
          <mxGeometry width="50" height="50" relative="1" as="geometry">
            <mxPoint x="836" y="491" as="sourcePoint" />
            <mxPoint x="715" y="465" as="targetPoint" />
          </mxGeometry>
        </mxCell>
      </root>
    </mxGraphModel>
  </diagram>
</mxfile>
